<?xml version="1.0" encoding="UTF-8"?>
<svg version="1.1" xmlns="http://www.w3.org/2000/svg" width="80" height="80">
<path d="M0 0 C26.4 0 52.8 0 80 0 C80 26.4 80 52.8 80 80 C53.6 80 27.2 80 0 80 C0 53.6 0 27.2 0 0 Z " fill="#45B682" transform="translate(0,0)"/>
<path d="M0 0 C1.875 1.125 1.875 1.125 3 3 C3.625 6.1875 3.625 6.1875 3 10 C-1.95058617 17.26064512 -9.25741018 23.41018436 -15.47167969 29.60205078 C-17.2635506 31.38850968 -19.04994794 33.18031955 -20.8359375 34.97265625 C-21.97884574 36.11490454 -23.12206368 37.25684305 -24.265625 38.3984375 C-24.79690002 38.93173676 -25.32817505 39.46503601 -25.87554932 40.01449585 C-31.69540045 45.79748863 -31.69540045 45.79748863 -35.390625 46.37109375 C-38.8919603 45.87314936 -40.20818463 44.49217646 -42.75 42.0625 C-43.60980469 41.2478125 -44.46960938 40.433125 -45.35546875 39.59375 C-46.22816406 38.7378125 -47.10085937 37.881875 -48 37 C-48.86238281 36.1646875 -49.72476563 35.329375 -50.61328125 34.46875 C-57.89570749 27.31408562 -57.89570749 27.31408562 -58.3125 22.0625 C-58.26006318 19.17847482 -58.22245336 18.29363844 -56.4375 15.9375 C-52.88941333 14.57285128 -50.67804721 15.10366917 -47 16 C-44.7484818 17.82455521 -42.97294649 19.44594725 -41.0625 21.5625 C-40.56943359 22.08263672 -40.07636719 22.60277344 -39.56835938 23.13867188 C-38.36467071 24.41247833 -37.18027648 25.70447049 -36 27 C-29.6633784 21.78521459 -23.944184 16.02719884 -18.1875 10.1875 C-16.30885256 8.28226344 -14.42694031 6.38046275 -12.54296875 4.48046875 C-11.71821045 3.64410889 -10.89345215 2.80774902 -10.04370117 1.94604492 C-6.51057841 -1.41825104 -4.66603332 -1.14270204 0 0 Z " fill="#FBFDFC" transform="translate(69,17)"/>
</svg>
